<?xml version="1.0" encoding="utf-8"?>
<!-- Generator: Adobe Illustrator 28.1.0, SVG Export Plug-In . SVG Version: 6.00 Build 0)  -->
<svg version="1.1" id="Layer_1" xmlns="http://www.w3.org/2000/svg" xmlns:xlink="http://www.w3.org/1999/xlink" x="0px" y="0px"
	 viewBox="0 0 139.9 139.9" style="enable-background:new 0 0 139.9 139.9;" xml:space="preserve">
<style type="text/css">
	.st0{fill:#FFFFFF;}
</style>
<g>
	<path d="M44.7,19.4v3.7c0,0.3,0.2,0.6,0.4,0.8l44.6,31.2c0.3,0.2,0.4,0.5,0.4,0.8v6.3c0,0.3,0.2,0.6,0.4,0.8l3,2.1
		c0.7,0.5,1.6,0,1.6-0.8v-11c0-0.3-0.2-0.6-0.4-0.8L46.3,18.6C45.6,18.1,44.7,18.6,44.7,19.4z"/>
	<path d="M95.2,72.9v16.4c0,0.3-0.2,0.6-0.4,0.8l-44.5,31.1c-0.3,0.2-0.8,0.2-1.1,0l-4-2.8c-0.3-0.2-0.4-0.5-0.4-0.8v-16.8
		c0-0.3,0.2-0.6,0.4-0.8l23.2-16.3c0.7-0.5,1.6,0,1.6,0.8v3.7c0,0.3-0.2,0.6-0.4,0.8l-19.4,13.6c-0.3,0.2-0.4,0.5-0.4,0.8v10.2
		c0,0.8,0.9,1.3,1.6,0.8l38.4-26.9c0.3-0.2,0.4-0.5,0.4-0.8V75.6c0-0.3-0.2-0.6-0.4-0.8L51.3,47.8c-0.7-0.5-1.6,0-1.6,0.8v19.3
		c0,0.8-0.9,1.3-1.6,0.8l-3-2.1c-0.3-0.2-0.4-0.5-0.4-0.8V44.6c0-0.3,0.2-0.6,0.4-0.8l4-2.8c0.3-0.2,0.8-0.2,1.1,0l44.4,31.1
		C95,72.3,95.2,72.6,95.2,72.9z"/>
</g>
</svg>
